<?xml version="1.0" encoding="UTF-8" standalone="no"?>
<!DOCTYPE svg PUBLIC "-//W3C//DTD SVG 1.1//EN"
 "http://www.w3.org/Graphics/SVG/1.1/DTD/svg11.dtd">
<!-- Generated by graphviz version 5.0.1 (0)
 -->
<!-- Title: nixstore Pages: 1 -->
<svg width="1400pt" height="2580pt"
 viewBox="0.00 0.00 1400.03 2580.00" xmlns="http://www.w3.org/2000/svg" xmlns:xlink="http://www.w3.org/1999/xlink">
<g id="graph0" class="graph" transform="scale(1 1) rotate(0) translate(4 2576)">
<title>nixstore</title>
<polygon fill="white" stroke="none" points="-4,4 -4,-2576 1396.03,-2576 1396.03,4 -4,4"/>
<!-- N39 -->
<g id="node1" class="node">
<title>N39</title>
<polygon fill="#3ec9e9" stroke="#3ec9e9" points="715.01,-18.54 715.01,-33.46 633,-44 517.03,-44 435.02,-33.46 435.02,-18.54 517.03,-8 633,-8 715.01,-18.54"/>
<polygon fill="none" stroke="#3ec9e9" points="719.01,-15.03 719.01,-36.97 633.26,-48 516.77,-48 431.02,-36.97 431.02,-15.03 516.77,-4 633.26,-4 719.01,-15.03"/>
<polygon fill="none" stroke="#3ec9e9" points="723,-11.51 723,-40.49 633.51,-52 516.52,-52 427.02,-40.49 427.02,-11.51 516.52,0 633.51,0 723,-11.51"/>
<text text-anchor="middle" x="575.01" y="-22.3" font-family="Times,serif" font-size="14.00" fill="#000000">{filtered out} (661.3 MB)</text>
</g>
<!-- N6 -->
<g id="node2" class="node">
<title>N6</title>
<polygon fill="#416ae1" stroke="#416ae1" points="936.7,-2188.54 936.7,-2203.46 724.83,-2214 425.2,-2214 213.33,-2203.46 213.33,-2188.54 425.2,-2178 724.83,-2178 936.7,-2188.54"/>
<polygon fill="none" stroke="#416ae1" points="940.7,-2184.74 940.7,-2207.26 724.93,-2218 425.1,-2218 209.33,-2207.26 209.33,-2184.74 425.1,-2174 724.93,-2174 940.7,-2184.74"/>
<polygon fill="none" stroke="#416ae1" points="944.71,-2180.93 944.71,-2211.07 725.03,-2222 425,-2222 205.32,-2211.07 205.32,-2180.93 425,-2170 725.03,-2170 944.71,-2180.93"/>
<text text-anchor="middle" x="575.01" y="-2192.3" font-family="Times,serif" font-size="14.00" fill="#ffffff">/nix/var/nix/profiles/per&#45;user/enikolov/home&#45;manager&#45;13&#45;link (6.7 MB)</text>
</g>
<!-- N5 -->
<g id="node38" class="node">
<title>N5</title>
<polygon fill="#ff0000" stroke="#ff0000" points="1392.03,-1164 1186.03,-1164 1186.03,-1128 1392.03,-1128 1392.03,-1164"/>
<text text-anchor="middle" x="1289.03" y="-1142.3" font-family="Times,serif" font-size="14.00" fill="#000000">home&#45;manager.sh (7.9 GB)</text>
</g>
<!-- N6&#45;&gt;N5 -->
<g id="edge1" class="edge">
<title>N6&#45;&gt;N5</title>
<path fill="none" stroke="black" d="M944.79,-2209.53C1035.93,-2205.04 1117.01,-2191.65 1150.03,-2161 1224.72,-2091.65 1276.31,-1332.56 1286.27,-1174.66"/>
<polygon fill="black" stroke="black" points="1289.78,-1174.55 1286.92,-1164.35 1282.8,-1174.11 1289.78,-1174.55"/>
</g>
<!-- N7 -->
<g id="node3" class="node">
<title>N7</title>
<polygon fill="#40a1e5" stroke="#40a1e5" points="949.04,-2118.54 949.04,-2133.46 729.94,-2144 420.09,-2144 200.99,-2133.46 200.99,-2118.54 420.09,-2108 729.94,-2108 949.04,-2118.54"/>
<polygon fill="none" stroke="#40a1e5" points="953.03,-2114.73 953.03,-2137.27 730.04,-2148 419.99,-2148 197,-2137.27 197,-2114.73 419.99,-2104 730.04,-2104 953.03,-2114.73"/>
<polygon fill="none" stroke="#40a1e5" points="957.03,-2110.92 957.03,-2141.08 730.13,-2152 419.9,-2152 193,-2141.08 193,-2110.92 419.9,-2100 730.13,-2100 957.03,-2110.92"/>
<text text-anchor="middle" x="575.01" y="-2122.3" font-family="Times,serif" font-size="14.00" fill="#000000">/nix/var/nix/profiles/per&#45;user/enikolov/home&#45;manager&#45;11&#45;link (334.9 MB)</text>
</g>
<!-- N7&#45;&gt;N5 -->
<g id="edge2" class="edge">
<title>N7&#45;&gt;N5</title>
<path fill="none" stroke="black" d="M957.4,-2138.63C1043.27,-2133.54 1118.42,-2120.05 1150.03,-2091 1288.63,-1963.6 1289.93,-1318.64 1288.45,-1174.57"/>
<polygon fill="black" stroke="black" points="1291.95,-1174.31 1288.33,-1164.35 1284.95,-1174.39 1291.95,-1174.31"/>
</g>
<!-- N8 -->
<g id="node4" class="node">
<title>N8</title>
<polygon fill="#416ee1" stroke="#416ee1" points="942.87,-2048.54 942.87,-2063.46 727.39,-2074 422.64,-2074 207.16,-2063.46 207.16,-2048.54 422.64,-2038 727.39,-2038 942.87,-2048.54"/>
<polygon fill="none" stroke="#416ee1" points="946.87,-2044.74 946.87,-2067.26 727.48,-2078 422.55,-2078 203.16,-2067.26 203.16,-2044.74 422.55,-2034 727.48,-2034 946.87,-2044.74"/>
<polygon fill="none" stroke="#416ee1" points="950.87,-2040.93 950.87,-2071.07 727.58,-2082 422.45,-2082 199.16,-2071.07 199.16,-2040.93 422.45,-2030 727.58,-2030 950.87,-2040.93"/>
<text text-anchor="middle" x="575.01" y="-2052.3" font-family="Times,serif" font-size="14.00" fill="#ffffff">/nix/var/nix/profiles/per&#45;user/enikolov/home&#45;manager&#45;16&#45;link (24.0 MB)</text>
</g>
<!-- N8&#45;&gt;N5 -->
<g id="edge3" class="edge">
<title>N8&#45;&gt;N5</title>
<path fill="none" stroke="black" d="M951.17,-2068.74C1039.53,-2063.91 1117.52,-2050.54 1150.03,-2021 1278.71,-1904.06 1287.73,-1311.01 1288.09,-1174.19"/>
<polygon fill="black" stroke="black" points="1291.59,-1174.1 1288.1,-1164.09 1284.59,-1174.09 1291.59,-1174.1"/>
</g>
<!-- N9 -->
<g id="node5" class="node">
<title>N9</title>
<polygon fill="#416ae1" stroke="#416ae1" points="936.7,-1978.54 936.7,-1993.46 724.83,-2004 425.2,-2004 213.33,-1993.46 213.33,-1978.54 425.2,-1968 724.83,-1968 936.7,-1978.54"/>
<polygon fill="none" stroke="#416ae1" points="940.7,-1974.74 940.7,-1997.26 724.93,-2008 425.1,-2008 209.33,-1997.26 209.33,-1974.74 425.1,-1964 724.93,-1964 940.7,-1974.74"/>
<polygon fill="none" stroke="#416ae1" points="944.71,-1970.93 944.71,-2001.07 725.03,-2012 425,-2012 205.32,-2001.07 205.32,-1970.93 425,-1960 725.03,-1960 944.71,-1970.93"/>
<text text-anchor="middle" x="575.01" y="-1982.3" font-family="Times,serif" font-size="14.00" fill="#ffffff">/nix/var/nix/profiles/per&#45;user/enikolov/home&#45;manager&#45;15&#45;link (3.9 MB)</text>
</g>
<!-- N9&#45;&gt;N5 -->
<g id="edge4" class="edge">
<title>N9&#45;&gt;N5</title>
<path fill="none" stroke="black" d="M944.88,-1998.77C1035.7,-1994.22 1116.58,-1980.99 1150.03,-1951 1268.64,-1844.65 1285.35,-1304.8 1287.66,-1174.39"/>
<polygon fill="black" stroke="black" points="1291.17,-1174.1 1287.83,-1164.05 1284.17,-1173.99 1291.17,-1174.1"/>
</g>
<!-- N3 -->
<g id="node6" class="node">
<title>N3</title>
<polygon fill="#3ceee9" stroke="#3ceee9" points="1135.88,-2258.54 1135.88,-2273.46 807.33,-2284 342.7,-2284 14.15,-2273.46 14.15,-2258.54 342.7,-2248 807.33,-2248 1135.88,-2258.54"/>
<polygon fill="none" stroke="#3ceee9" points="1139.88,-2254.67 1139.88,-2277.33 807.4,-2288 342.63,-2288 10.15,-2277.33 10.15,-2254.67 342.63,-2244 807.4,-2244 1139.88,-2254.67"/>
<polygon fill="none" stroke="#3ceee9" points="1143.88,-2250.8 1143.88,-2281.2 807.46,-2292 342.57,-2292 6.15,-2281.2 6.15,-2250.8 342.57,-2240 807.46,-2240 1143.88,-2250.8"/>
<text text-anchor="middle" x="575.01" y="-2262.3" font-family="Times,serif" font-size="14.00" fill="#000000">/home/enikolov/dev/lschoe/mpyc/.direnv/flake&#45;inputs/6jmqqi3rj0sszn8f14jk0xi9kk3mvka5&#45;source (1069.1 MB)</text>
</g>
<!-- N10 -->
<g id="node7" class="node">
<title>N10</title>
<polygon fill="#416ae1" stroke="#416ae1" points="930.05,-1908.54 930.05,-1923.46 722.07,-1934 427.96,-1934 219.98,-1923.46 219.98,-1908.54 427.96,-1898 722.07,-1898 930.05,-1908.54"/>
<polygon fill="none" stroke="#416ae1" points="934.05,-1904.74 934.05,-1927.26 722.18,-1938 427.85,-1938 215.98,-1927.26 215.98,-1904.74 427.85,-1894 722.18,-1894 934.05,-1904.74"/>
<polygon fill="none" stroke="#416ae1" points="938.04,-1900.94 938.04,-1931.06 722.28,-1942 427.75,-1942 211.99,-1931.06 211.99,-1900.94 427.75,-1890 722.28,-1890 938.04,-1900.94"/>
<text text-anchor="middle" x="575.01" y="-1912.3" font-family="Times,serif" font-size="14.00" fill="#ffffff">/nix/var/nix/profiles/per&#45;user/enikolov/home&#45;manager&#45;9&#45;link (3.9 MB)</text>
</g>
<!-- N10&#45;&gt;N5 -->
<g id="edge5" class="edge">
<title>N10&#45;&gt;N5</title>
<path fill="none" stroke="black" d="M938.13,-1928.74C1031.55,-1924.49 1115.55,-1911.43 1150.03,-1881 1258.7,-1785.1 1282.79,-1297.44 1287.17,-1174.28"/>
<polygon fill="black" stroke="black" points="1290.67,-1174.26 1287.51,-1164.15 1283.67,-1174.02 1290.67,-1174.26"/>
</g>
<!-- N11 -->
<g id="node8" class="node">
<title>N11</title>
<polygon fill="#4169e1" stroke="#4169e1" points="903.58,-1838.54 903.58,-1853.46 711.11,-1864 438.92,-1864 246.45,-1853.46 246.45,-1838.54 438.92,-1828 711.11,-1828 903.58,-1838.54"/>
<polygon fill="none" stroke="#4169e1" points="907.58,-1834.76 907.58,-1857.24 711.22,-1868 438.81,-1868 242.45,-1857.24 242.45,-1834.76 438.81,-1824 711.22,-1824 907.58,-1834.76"/>
<polygon fill="none" stroke="#4169e1" points="911.58,-1830.97 911.58,-1861.03 711.33,-1872 438.7,-1872 238.45,-1861.03 238.45,-1830.97 438.7,-1820 711.33,-1820 911.58,-1830.97"/>
<text text-anchor="middle" x="575.01" y="-1842.3" font-family="Times,serif" font-size="14.00" fill="#ffffff">/nix/var/nix/profiles/per&#45;user/enikolov/profile&#45;10&#45;link (567.8 KB)</text>
</g>
<!-- N11&#45;&gt;N5 -->
<g id="edge6" class="edge">
<title>N11&#45;&gt;N5</title>
<path fill="none" stroke="black" d="M911.72,-1859.3C1015.24,-1856.32 1112.05,-1843.88 1150.03,-1811 1248.81,-1725.49 1279.98,-1289.72 1286.57,-1174.16"/>
<polygon fill="black" stroke="black" points="1290.08,-1174.18 1287.14,-1164 1283.09,-1173.79 1290.08,-1174.18"/>
</g>
<!-- N12 -->
<g id="node9" class="node">
<title>N12</title>
<polygon fill="#416ae1" stroke="#416ae1" points="936.7,-1768.54 936.7,-1783.46 724.83,-1794 425.2,-1794 213.33,-1783.46 213.33,-1768.54 425.2,-1758 724.83,-1758 936.7,-1768.54"/>
<polygon fill="none" stroke="#416ae1" points="940.7,-1764.74 940.7,-1787.26 724.93,-1798 425.1,-1798 209.33,-1787.26 209.33,-1764.74 425.1,-1754 724.93,-1754 940.7,-1764.74"/>
<polygon fill="none" stroke="#416ae1" points="944.71,-1760.93 944.71,-1791.07 725.03,-1802 425,-1802 205.32,-1791.07 205.32,-1760.93 425,-1750 725.03,-1750 944.71,-1760.93"/>
<text text-anchor="middle" x="575.01" y="-1772.3" font-family="Times,serif" font-size="14.00" fill="#ffffff">/nix/var/nix/profiles/per&#45;user/enikolov/home&#45;manager&#45;14&#45;link (3.9 MB)</text>
</g>
<!-- N12&#45;&gt;N5 -->
<g id="edge7" class="edge">
<title>N12&#45;&gt;N5</title>
<path fill="none" stroke="black" d="M944.93,-1787.47C1035.27,-1782.84 1115.86,-1769.89 1150.03,-1741 1238.88,-1665.87 1276.81,-1282.27 1285.83,-1174.31"/>
<polygon fill="black" stroke="black" points="1289.33,-1174.44 1286.66,-1164.18 1282.35,-1173.87 1289.33,-1174.44"/>
</g>
<!-- N13 -->
<g id="node10" class="node">
<title>N13</title>
<polygon fill="#416de1" stroke="#416de1" points="898.73,-1698.54 898.73,-1713.46 709.1,-1724 440.93,-1724 251.3,-1713.46 251.3,-1698.54 440.93,-1688 709.1,-1688 898.73,-1698.54"/>
<polygon fill="none" stroke="#416de1" points="902.73,-1694.76 902.73,-1717.24 709.21,-1728 440.82,-1728 247.3,-1717.24 247.3,-1694.76 440.82,-1684 709.21,-1684 902.73,-1694.76"/>
<polygon fill="none" stroke="#416de1" points="906.73,-1690.98 906.73,-1721.02 709.32,-1732 440.71,-1732 243.3,-1721.02 243.3,-1690.98 440.71,-1680 709.32,-1680 906.73,-1690.98"/>
<text text-anchor="middle" x="575.01" y="-1702.3" font-family="Times,serif" font-size="14.00" fill="#ffffff">/nix/var/nix/gcroots/per&#45;user/enikolov/current&#45;home (18.0 MB)</text>
</g>
<!-- N13&#45;&gt;N5 -->
<g id="edge8" class="edge">
<title>N13&#45;&gt;N5</title>
<path fill="none" stroke="black" d="M906.93,-1718.3C1011.79,-1715.4 1110.72,-1703.27 1150.03,-1671 1229.02,-1606.16 1273.21,-1274.41 1284.88,-1174.5"/>
<polygon fill="black" stroke="black" points="1288.39,-1174.61 1286.05,-1164.27 1281.44,-1173.81 1288.39,-1174.61"/>
</g>
<!-- N14 -->
<g id="node11" class="node">
<title>N14</title>
<polygon fill="#4169e1" stroke="#4169e1" points="923.47,-1628.54 923.47,-1643.46 719.35,-1654 430.68,-1654 226.56,-1643.46 226.56,-1628.54 430.68,-1618 719.35,-1618 923.47,-1628.54"/>
<polygon fill="none" stroke="#4169e1" points="927.47,-1624.75 927.47,-1647.25 719.45,-1658 430.58,-1658 222.56,-1647.25 222.56,-1624.75 430.58,-1614 719.45,-1614 927.47,-1624.75"/>
<polygon fill="none" stroke="#4169e1" points="931.47,-1620.95 931.47,-1651.05 719.56,-1662 430.47,-1662 218.56,-1651.05 218.56,-1620.95 430.47,-1610 719.56,-1610 931.47,-1620.95"/>
<text text-anchor="middle" x="575.01" y="-1632.3" font-family="Times,serif" font-size="14.00" fill="#ffffff">/nix/var/nix/profiles/per&#45;user/enikolov/home&#45;manager&#45;19&#45;link (60 B)</text>
</g>
<!-- N14&#45;&gt;N5 -->
<g id="edge9" class="edge">
<title>N14&#45;&gt;N5</title>
<path fill="none" stroke="black" d="M931.6,-1646.59C1026.73,-1642.43 1113.36,-1629.97 1150.03,-1601 1219.35,-1546.24 1269.23,-1264.96 1283.71,-1174.24"/>
<polygon fill="black" stroke="black" points="1287.2,-1174.57 1285.3,-1164.15 1280.29,-1173.48 1287.2,-1174.57"/>
</g>
<!-- N15 -->
<g id="node12" class="node">
<title>N15</title>
<polygon fill="#4169e1" stroke="#4169e1" points="946.4,-1558.54 946.4,-1573.46 728.85,-1584 421.18,-1584 203.63,-1573.46 203.63,-1558.54 421.18,-1548 728.85,-1548 946.4,-1558.54"/>
<polygon fill="none" stroke="#4169e1" points="950.4,-1554.73 950.4,-1577.27 728.95,-1588 421.08,-1588 199.63,-1577.27 199.63,-1554.73 421.08,-1544 728.95,-1544 950.4,-1554.73"/>
<polygon fill="none" stroke="#4169e1" points="954.4,-1550.92 954.4,-1581.08 729.04,-1592 420.99,-1592 195.63,-1581.08 195.63,-1550.92 420.99,-1540 729.04,-1540 954.4,-1550.92"/>
<text text-anchor="middle" x="575.01" y="-1562.3" font-family="Times,serif" font-size="14.00" fill="#ffffff">/nix/var/nix/profiles/per&#45;user/enikolov/home&#45;manager&#45;10&#45;link (204.4 KB)</text>
</g>
<!-- N15&#45;&gt;N5 -->
<g id="edge10" class="edge">
<title>N15&#45;&gt;N5</title>
<path fill="none" stroke="black" d="M954.54,-1574.24C1040.09,-1569.1 1115.79,-1556.69 1150.03,-1531 1266.98,-1443.24 1285.08,-1247.55 1287.68,-1174.35"/>
<polygon fill="black" stroke="black" points="1291.19,-1174.17 1287.97,-1164.08 1284.19,-1173.98 1291.19,-1174.17"/>
</g>
<!-- N16 -->
<g id="node13" class="node">
<title>N16</title>
<polygon fill="#4169e1" stroke="#4169e1" points="940.24,-1488.54 940.24,-1503.46 726.3,-1514 423.73,-1514 209.79,-1503.46 209.79,-1488.54 423.73,-1478 726.3,-1478 940.24,-1488.54"/>
<polygon fill="none" stroke="#4169e1" points="944.24,-1484.74 944.24,-1507.26 726.39,-1518 423.64,-1518 205.79,-1507.26 205.79,-1484.74 423.64,-1474 726.39,-1474 944.24,-1484.74"/>
<polygon fill="none" stroke="#4169e1" points="948.24,-1480.93 948.24,-1511.07 726.49,-1522 423.54,-1522 201.79,-1511.07 201.79,-1480.93 423.54,-1470 726.49,-1470 948.24,-1480.93"/>
<text text-anchor="middle" x="575.01" y="-1492.3" font-family="Times,serif" font-size="14.00" fill="#ffffff">/nix/var/nix/profiles/per&#45;user/enikolov/home&#45;manager&#45;5&#45;link (214.9 KB)</text>
</g>
<!-- N16&#45;&gt;N5 -->
<g id="edge11" class="edge">
<title>N16&#45;&gt;N5</title>
<path fill="none" stroke="black" d="M948.14,-1502.97C1035.82,-1498 1114.21,-1486 1150.03,-1461 1248.15,-1392.51 1277.21,-1238.21 1285.21,-1174.42"/>
<polygon fill="black" stroke="black" points="1288.71,-1174.64 1286.4,-1164.3 1281.76,-1173.82 1288.71,-1174.64"/>
</g>
<!-- N17 -->
<g id="node14" class="node">
<title>N17</title>
<polygon fill="#4169e1" stroke="#4169e1" points="897.41,-1418.54 897.41,-1433.46 708.56,-1444 441.47,-1444 252.62,-1433.46 252.62,-1418.54 441.47,-1408 708.56,-1408 897.41,-1418.54"/>
<polygon fill="none" stroke="#4169e1" points="901.41,-1414.76 901.41,-1437.24 708.67,-1448 441.36,-1448 248.62,-1437.24 248.62,-1414.76 441.36,-1404 708.67,-1404 901.41,-1414.76"/>
<polygon fill="none" stroke="#4169e1" points="905.41,-1410.98 905.41,-1441.02 708.78,-1452 441.25,-1452 244.62,-1441.02 244.62,-1410.98 441.25,-1400 708.78,-1400 905.41,-1410.98"/>
<text text-anchor="middle" x="575.01" y="-1422.3" font-family="Times,serif" font-size="14.00" fill="#ffffff">/nix/var/nix/profiles/per&#45;user/enikolov/profile&#45;9&#45;link (567.3 KB)</text>
</g>
<!-- N17&#45;&gt;N5 -->
<g id="edge12" class="edge">
<title>N17&#45;&gt;N5</title>
<path fill="none" stroke="black" d="M905.49,-1432.47C1008.93,-1428.85 1107.29,-1417.75 1150.03,-1391 1229.94,-1340.97 1267.82,-1226.99 1281.61,-1174.02"/>
<polygon fill="black" stroke="black" points="1285.01,-1174.83 1284.05,-1164.28 1278.22,-1173.13 1285.01,-1174.83"/>
</g>
<!-- N18 -->
<g id="node15" class="node">
<title>N18</title>
<polygon fill="#4169e1" stroke="#4169e1" points="946.4,-1348.54 946.4,-1363.46 728.85,-1374 421.18,-1374 203.63,-1363.46 203.63,-1348.54 421.18,-1338 728.85,-1338 946.4,-1348.54"/>
<polygon fill="none" stroke="#4169e1" points="950.4,-1344.73 950.4,-1367.27 728.95,-1378 421.08,-1378 199.63,-1367.27 199.63,-1344.73 421.08,-1334 728.95,-1334 950.4,-1344.73"/>
<polygon fill="none" stroke="#4169e1" points="954.4,-1340.92 954.4,-1371.08 729.04,-1382 420.99,-1382 195.63,-1371.08 195.63,-1340.92 420.99,-1330 729.04,-1330 954.4,-1340.92"/>
<text text-anchor="middle" x="575.01" y="-1352.3" font-family="Times,serif" font-size="14.00" fill="#ffffff">/nix/var/nix/profiles/per&#45;user/enikolov/home&#45;manager&#45;12&#45;link (203.9 KB)</text>
</g>
<!-- N18&#45;&gt;N5 -->
<g id="edge13" class="edge">
<title>N18&#45;&gt;N5</title>
<path fill="none" stroke="black" d="M749.06,-1381.06C868.4,-1390.12 1027.06,-1385.33 1150.03,-1321 1212.4,-1288.37 1255.81,-1213.75 1275.72,-1173.29"/>
<polygon fill="black" stroke="black" points="1278.88,-1174.78 1280.05,-1164.25 1272.57,-1171.76 1278.88,-1174.78"/>
</g>
<!-- N19 -->
<g id="node16" class="node">
<title>N19</title>
<polygon fill="#4169e1" stroke="#4169e1" points="940.24,-1278.54 940.24,-1293.46 726.3,-1304 423.73,-1304 209.79,-1293.46 209.79,-1278.54 423.73,-1268 726.3,-1268 940.24,-1278.54"/>
<polygon fill="none" stroke="#4169e1" points="944.24,-1274.74 944.24,-1297.26 726.39,-1308 423.64,-1308 205.79,-1297.26 205.79,-1274.74 423.64,-1264 726.39,-1264 944.24,-1274.74"/>
<polygon fill="none" stroke="#4169e1" points="948.24,-1270.93 948.24,-1301.07 726.49,-1312 423.54,-1312 201.79,-1301.07 201.79,-1270.93 423.54,-1260 726.49,-1260 948.24,-1270.93"/>
<text text-anchor="middle" x="575.01" y="-1282.3" font-family="Times,serif" font-size="14.00" fill="#ffffff">/nix/var/nix/profiles/per&#45;user/enikolov/home&#45;manager&#45;3&#45;link (213.4 KB)</text>
</g>
<!-- N19&#45;&gt;N5 -->
<g id="edge14" class="edge">
<title>N19&#45;&gt;N5</title>
<path fill="none" stroke="black" d="M948.22,-1295.23C1016.83,-1288.04 1086.74,-1274.51 1150.03,-1251 1195.55,-1234.09 1238.5,-1196.8 1264.04,-1171.53"/>
<polygon fill="black" stroke="black" points="1266.84,-1173.67 1271.39,-1164.11 1261.87,-1168.75 1266.84,-1173.67"/>
</g>
<!-- N20 -->
<g id="node17" class="node">
<title>N20</title>
<polygon fill="#4169e1" stroke="#4169e1" points="940.24,-1208.54 940.24,-1223.46 726.3,-1234 423.73,-1234 209.79,-1223.46 209.79,-1208.54 423.73,-1198 726.3,-1198 940.24,-1208.54"/>
<polygon fill="none" stroke="#4169e1" points="944.24,-1204.74 944.24,-1227.26 726.39,-1238 423.64,-1238 205.79,-1227.26 205.79,-1204.74 423.64,-1194 726.39,-1194 944.24,-1204.74"/>
<polygon fill="none" stroke="#4169e1" points="948.24,-1200.93 948.24,-1231.07 726.49,-1242 423.54,-1242 201.79,-1231.07 201.79,-1200.93 423.54,-1190 726.49,-1190 948.24,-1200.93"/>
<text text-anchor="middle" x="575.01" y="-1212.3" font-family="Times,serif" font-size="14.00" fill="#ffffff">/nix/var/nix/profiles/per&#45;user/enikolov/home&#45;manager&#45;8&#45;link (203.9 KB)</text>
</g>
<!-- N20&#45;&gt;N5 -->
<g id="edge15" class="edge">
<title>N20&#45;&gt;N5</title>
<path fill="none" stroke="black" d="M948.42,-1203.49C1015.76,-1198.34 1085.17,-1191.11 1150.03,-1181 1172.16,-1177.55 1195.92,-1172.16 1217.37,-1166.63"/>
<polygon fill="black" stroke="black" points="1218.27,-1170.01 1227.06,-1164.09 1216.49,-1163.24 1218.27,-1170.01"/>
</g>
<!-- N21 -->
<g id="node18" class="node">
<title>N21</title>
<polygon fill="#4169e1" stroke="#4169e1" points="897.41,-1138.54 897.41,-1153.46 708.56,-1164 441.47,-1164 252.62,-1153.46 252.62,-1138.54 441.47,-1128 708.56,-1128 897.41,-1138.54"/>
<polygon fill="none" stroke="#4169e1" points="901.41,-1134.76 901.41,-1157.24 708.67,-1168 441.36,-1168 248.62,-1157.24 248.62,-1134.76 441.36,-1124 708.67,-1124 901.41,-1134.76"/>
<polygon fill="none" stroke="#4169e1" points="905.41,-1130.98 905.41,-1161.02 708.78,-1172 441.25,-1172 244.62,-1161.02 244.62,-1130.98 441.25,-1120 708.78,-1120 905.41,-1130.98"/>
<text text-anchor="middle" x="575.01" y="-1142.3" font-family="Times,serif" font-size="14.00" fill="#ffffff">/nix/var/nix/profiles/per&#45;user/enikolov/profile&#45;5&#45;link (565.9 KB)</text>
</g>
<!-- N21&#45;&gt;N5 -->
<g id="edge16" class="edge">
<title>N21&#45;&gt;N5</title>
<path fill="none" stroke="black" d="M905.45,-1146C1002.64,-1146 1102.48,-1146 1175.79,-1146"/>
<polygon fill="black" stroke="black" points="1175.96,-1149.5 1185.96,-1146 1175.96,-1142.5 1175.96,-1149.5"/>
</g>
<!-- N22 -->
<g id="node19" class="node">
<title>N22</title>
<polygon fill="#4169e1" stroke="#4169e1" points="873.98,-1068.54 873.98,-1083.46 698.85,-1094 451.18,-1094 276.05,-1083.46 276.05,-1068.54 451.18,-1058 698.85,-1058 873.98,-1068.54"/>
<polygon fill="none" stroke="#4169e1" points="877.98,-1064.78 877.98,-1087.22 698.97,-1098 451.06,-1098 272.05,-1087.22 272.05,-1064.78 451.06,-1054 698.97,-1054 877.98,-1064.78"/>
<polygon fill="none" stroke="#4169e1" points="881.98,-1061.01 881.98,-1090.99 699.09,-1102 450.94,-1102 268.05,-1090.99 268.05,-1061.01 450.94,-1050 699.09,-1050 881.98,-1061.01"/>
<text text-anchor="middle" x="575.01" y="-1072.3" font-family="Times,serif" font-size="14.00" fill="#ffffff">/nix/var/nix/profiles/per&#45;user/enikolov/profile&#45;7&#45;link (54 B)</text>
</g>
<!-- N22&#45;&gt;N5 -->
<g id="edge17" class="edge">
<title>N22&#45;&gt;N5</title>
<path fill="none" stroke="black" d="M882.13,-1084.02C969.07,-1089.17 1063.59,-1097.52 1150.03,-1111 1172.16,-1114.45 1195.92,-1119.84 1217.37,-1125.37"/>
<polygon fill="black" stroke="black" points="1216.49,-1128.76 1227.06,-1127.91 1218.27,-1121.99 1216.49,-1128.76"/>
</g>
<!-- N23 -->
<g id="node20" class="node">
<title>N23</title>
<polygon fill="#4169e1" stroke="#4169e1" points="940.24,-998.54 940.24,-1013.46 726.3,-1024 423.73,-1024 209.79,-1013.46 209.79,-998.54 423.73,-988 726.3,-988 940.24,-998.54"/>
<polygon fill="none" stroke="#4169e1" points="944.24,-994.74 944.24,-1017.26 726.39,-1028 423.64,-1028 205.79,-1017.26 205.79,-994.74 423.64,-984 726.39,-984 944.24,-994.74"/>
<polygon fill="none" stroke="#4169e1" points="948.24,-990.93 948.24,-1021.07 726.49,-1032 423.54,-1032 201.79,-1021.07 201.79,-990.93 423.54,-980 726.49,-980 948.24,-990.93"/>
<text text-anchor="middle" x="575.01" y="-1002.3" font-family="Times,serif" font-size="14.00" fill="#ffffff">/nix/var/nix/profiles/per&#45;user/enikolov/home&#45;manager&#45;6&#45;link (213.9 KB)</text>
</g>
<!-- N23&#45;&gt;N5 -->
<g id="edge18" class="edge">
<title>N23&#45;&gt;N5</title>
<path fill="none" stroke="black" d="M948.22,-996.77C1016.83,-1003.96 1086.74,-1017.49 1150.03,-1041 1195.55,-1057.91 1238.5,-1095.2 1264.04,-1120.47"/>
<polygon fill="black" stroke="black" points="1261.87,-1123.25 1271.39,-1127.89 1266.84,-1118.33 1261.87,-1123.25"/>
</g>
<!-- N24 -->
<g id="node21" class="node">
<title>N24</title>
<polygon fill="#416ae1" stroke="#416ae1" points="893.87,-928.54 893.87,-943.46 707.09,-954 442.94,-954 256.16,-943.46 256.16,-928.54 442.94,-918 707.09,-918 893.87,-928.54"/>
<polygon fill="none" stroke="#416ae1" points="897.88,-924.76 897.88,-947.24 707.2,-958 442.83,-958 252.15,-947.24 252.15,-924.76 442.83,-914 707.2,-914 897.88,-924.76"/>
<polygon fill="none" stroke="#416ae1" points="901.88,-920.98 901.88,-951.02 707.32,-962 442.71,-962 248.15,-951.02 248.15,-920.98 442.71,-910 707.32,-910 901.88,-920.98"/>
<text text-anchor="middle" x="575.01" y="-932.3" font-family="Times,serif" font-size="14.00" fill="#ffffff">/nix/var/nix/profiles/per&#45;user/enikolov/profile&#45;13&#45;link (4.3 MB)</text>
</g>
<!-- N24&#45;&gt;N5 -->
<g id="edge19" class="edge">
<title>N24&#45;&gt;N5</title>
<path fill="none" stroke="black" d="M738.86,-911.75C859.24,-901.65 1023.52,-904.82 1150.03,-971 1212.4,-1003.63 1255.81,-1078.25 1275.72,-1118.71"/>
<polygon fill="black" stroke="black" points="1272.57,-1120.24 1280.05,-1127.75 1278.88,-1117.22 1272.57,-1120.24"/>
</g>
<!-- N25 -->
<g id="node22" class="node">
<title>N25</title>
<polygon fill="#4169e1" stroke="#4169e1" points="903.58,-858.54 903.58,-873.46 711.11,-884 438.92,-884 246.45,-873.46 246.45,-858.54 438.92,-848 711.11,-848 903.58,-858.54"/>
<polygon fill="none" stroke="#4169e1" points="907.58,-854.76 907.58,-877.24 711.22,-888 438.81,-888 242.45,-877.24 242.45,-854.76 438.81,-844 711.22,-844 907.58,-854.76"/>
<polygon fill="none" stroke="#4169e1" points="911.58,-850.97 911.58,-881.03 711.33,-892 438.7,-892 238.45,-881.03 238.45,-850.97 438.7,-840 711.33,-840 911.58,-850.97"/>
<text text-anchor="middle" x="575.01" y="-862.3" font-family="Times,serif" font-size="14.00" fill="#ffffff">/nix/var/nix/profiles/per&#45;user/enikolov/profile&#45;14&#45;link (596.6 KB)</text>
</g>
<!-- N25&#45;&gt;N5 -->
<g id="edge20" class="edge">
<title>N25&#45;&gt;N5</title>
<path fill="none" stroke="black" d="M911.63,-859.75C1012.81,-863.6 1108.14,-874.77 1150.03,-901 1229.94,-951.03 1267.82,-1065.01 1281.61,-1117.98"/>
<polygon fill="black" stroke="black" points="1278.22,-1118.87 1284.05,-1127.72 1285.01,-1117.17 1278.22,-1118.87"/>
</g>
<!-- N26 -->
<g id="node23" class="node">
<title>N26</title>
<polygon fill="#4169e1" stroke="#4169e1" points="940.24,-788.54 940.24,-803.46 726.3,-814 423.73,-814 209.79,-803.46 209.79,-788.54 423.73,-778 726.3,-778 940.24,-788.54"/>
<polygon fill="none" stroke="#4169e1" points="944.24,-784.74 944.24,-807.26 726.39,-818 423.64,-818 205.79,-807.26 205.79,-784.74 423.64,-774 726.39,-774 944.24,-784.74"/>
<polygon fill="none" stroke="#4169e1" points="948.24,-780.93 948.24,-811.07 726.49,-822 423.54,-822 201.79,-811.07 201.79,-780.93 423.54,-770 726.49,-770 948.24,-780.93"/>
<text text-anchor="middle" x="575.01" y="-792.3" font-family="Times,serif" font-size="14.00" fill="#ffffff">/nix/var/nix/profiles/per&#45;user/enikolov/home&#45;manager&#45;1&#45;link (214.3 KB)</text>
</g>
<!-- N26&#45;&gt;N5 -->
<g id="edge21" class="edge">
<title>N26&#45;&gt;N5</title>
<path fill="none" stroke="black" d="M948.14,-789.03C1035.82,-794 1114.21,-806 1150.03,-831 1248.15,-899.49 1277.21,-1053.79 1285.21,-1117.58"/>
<polygon fill="black" stroke="black" points="1281.76,-1118.18 1286.4,-1127.7 1288.71,-1117.36 1281.76,-1118.18"/>
</g>
<!-- N27 -->
<g id="node24" class="node">
<title>N27</title>
<polygon fill="#4169e1" stroke="#4169e1" points="897.41,-718.54 897.41,-733.46 708.56,-744 441.47,-744 252.62,-733.46 252.62,-718.54 441.47,-708 708.56,-708 897.41,-718.54"/>
<polygon fill="none" stroke="#4169e1" points="901.41,-714.76 901.41,-737.24 708.67,-748 441.36,-748 248.62,-737.24 248.62,-714.76 441.36,-704 708.67,-704 901.41,-714.76"/>
<polygon fill="none" stroke="#4169e1" points="905.41,-710.98 905.41,-741.02 708.78,-752 441.25,-752 244.62,-741.02 244.62,-710.98 441.25,-700 708.78,-700 905.41,-710.98"/>
<text text-anchor="middle" x="575.01" y="-722.3" font-family="Times,serif" font-size="14.00" fill="#ffffff">/nix/var/nix/profiles/per&#45;user/enikolov/profile&#45;6&#45;link (560.4 KB)</text>
</g>
<!-- N27&#45;&gt;N5 -->
<g id="edge22" class="edge">
<title>N27&#45;&gt;N5</title>
<path fill="none" stroke="black" d="M905.44,-715.59C1010.15,-718.7 1109.35,-730.48 1150.03,-761 1266.98,-848.76 1285.08,-1044.45 1287.68,-1117.65"/>
<polygon fill="black" stroke="black" points="1284.19,-1118.02 1287.97,-1127.92 1291.19,-1117.83 1284.19,-1118.02"/>
</g>
<!-- N28 -->
<g id="node25" class="node">
<title>N28</title>
<polygon fill="#4169e1" stroke="#4169e1" points="873.98,-648.54 873.98,-663.46 698.85,-674 451.18,-674 276.05,-663.46 276.05,-648.54 451.18,-638 698.85,-638 873.98,-648.54"/>
<polygon fill="none" stroke="#4169e1" points="877.98,-644.78 877.98,-667.22 698.97,-678 451.06,-678 272.05,-667.22 272.05,-644.78 451.06,-634 698.97,-634 877.98,-644.78"/>
<polygon fill="none" stroke="#4169e1" points="881.98,-641.01 881.98,-670.99 699.09,-682 450.94,-682 268.05,-670.99 268.05,-641.01 450.94,-630 699.09,-630 881.98,-641.01"/>
<text text-anchor="middle" x="575.01" y="-652.3" font-family="Times,serif" font-size="14.00" fill="#ffffff">/nix/var/nix/profiles/per&#45;user/enikolov/profile&#45;4&#45;link (54 B)</text>
</g>
<!-- N28&#45;&gt;N5 -->
<g id="edge23" class="edge">
<title>N28&#45;&gt;N5</title>
<path fill="none" stroke="black" d="M882.28,-643.97C995.66,-645.79 1107.09,-657.08 1150.03,-691 1219.35,-745.76 1269.23,-1027.04 1283.71,-1117.76"/>
<polygon fill="black" stroke="black" points="1280.29,-1118.52 1285.3,-1127.85 1287.2,-1117.43 1280.29,-1118.52"/>
</g>
<!-- N29 -->
<g id="node26" class="node">
<title>N29</title>
<polygon fill="#4169e1" stroke="#4169e1" points="903.58,-578.54 903.58,-593.46 711.11,-604 438.92,-604 246.45,-593.46 246.45,-578.54 438.92,-568 711.11,-568 903.58,-578.54"/>
<polygon fill="none" stroke="#4169e1" points="907.58,-574.76 907.58,-597.24 711.22,-608 438.81,-608 242.45,-597.24 242.45,-574.76 438.81,-564 711.22,-564 907.58,-574.76"/>
<polygon fill="none" stroke="#4169e1" points="911.58,-570.97 911.58,-601.03 711.33,-612 438.7,-612 238.45,-601.03 238.45,-570.97 438.7,-560 711.33,-560 911.58,-570.97"/>
<text text-anchor="middle" x="575.01" y="-582.3" font-family="Times,serif" font-size="14.00" fill="#ffffff">/nix/var/nix/profiles/per&#45;user/enikolov/profile&#45;11&#45;link (568.1 KB)</text>
</g>
<!-- N29&#45;&gt;N5 -->
<g id="edge24" class="edge">
<title>N29&#45;&gt;N5</title>
<path fill="none" stroke="black" d="M911.55,-573.83C1014.69,-576.97 1111.3,-589.21 1150.03,-621 1229.02,-685.84 1273.21,-1017.59 1284.88,-1117.5"/>
<polygon fill="black" stroke="black" points="1281.44,-1118.19 1286.05,-1127.73 1288.39,-1117.39 1281.44,-1118.19"/>
</g>
<!-- N30 -->
<g id="node27" class="node">
<title>N30</title>
<polygon fill="#4169e1" stroke="#4169e1" points="897.41,-508.54 897.41,-523.46 708.56,-534 441.47,-534 252.62,-523.46 252.62,-508.54 441.47,-498 708.56,-498 897.41,-508.54"/>
<polygon fill="none" stroke="#4169e1" points="901.41,-504.76 901.41,-527.24 708.67,-538 441.36,-538 248.62,-527.24 248.62,-504.76 441.36,-494 708.67,-494 901.41,-504.76"/>
<polygon fill="none" stroke="#4169e1" points="905.41,-500.98 905.41,-531.02 708.78,-542 441.25,-542 244.62,-531.02 244.62,-500.98 441.25,-490 708.78,-490 905.41,-500.98"/>
<text text-anchor="middle" x="575.01" y="-512.3" font-family="Times,serif" font-size="14.00" fill="#ffffff">/nix/var/nix/profiles/per&#45;user/enikolov/profile&#45;8&#45;link (565.9 KB)</text>
</g>
<!-- N30&#45;&gt;N5 -->
<g id="edge25" class="edge">
<title>N30&#45;&gt;N5</title>
<path fill="none" stroke="black" d="M905.51,-503.03C1011.15,-505.77 1110.96,-517.96 1150.03,-551 1238.88,-626.13 1276.81,-1009.73 1285.83,-1117.69"/>
<polygon fill="black" stroke="black" points="1282.35,-1118.13 1286.66,-1127.82 1289.33,-1117.56 1282.35,-1118.13"/>
</g>
<!-- N31 -->
<g id="node28" class="node">
<title>N31</title>
<polygon fill="#4169e1" stroke="#4169e1" points="940.24,-438.54 940.24,-453.46 726.3,-464 423.73,-464 209.79,-453.46 209.79,-438.54 423.73,-428 726.3,-428 940.24,-438.54"/>
<polygon fill="none" stroke="#4169e1" points="944.24,-434.74 944.24,-457.26 726.39,-468 423.64,-468 205.79,-457.26 205.79,-434.74 423.64,-424 726.39,-424 944.24,-434.74"/>
<polygon fill="none" stroke="#4169e1" points="948.24,-430.93 948.24,-461.07 726.49,-472 423.54,-472 201.79,-461.07 201.79,-430.93 423.54,-420 726.49,-420 948.24,-430.93"/>
<text text-anchor="middle" x="575.01" y="-442.3" font-family="Times,serif" font-size="14.00" fill="#ffffff">/nix/var/nix/profiles/per&#45;user/enikolov/home&#45;manager&#45;4&#45;link (204.1 KB)</text>
</g>
<!-- N31&#45;&gt;N5 -->
<g id="edge26" class="edge">
<title>N31&#45;&gt;N5</title>
<path fill="none" stroke="black" d="M948.38,-434.19C1037.5,-438.94 1116.58,-452.04 1150.03,-481 1248.81,-566.51 1279.98,-1002.28 1286.57,-1117.84"/>
<polygon fill="black" stroke="black" points="1283.09,-1118.21 1287.14,-1128 1290.08,-1117.82 1283.09,-1118.21"/>
</g>
<!-- N32 -->
<g id="node29" class="node">
<title>N32</title>
<polygon fill="#4169e1" stroke="#4169e1" points="946.4,-368.54 946.4,-383.46 728.85,-394 421.18,-394 203.63,-383.46 203.63,-368.54 421.18,-358 728.85,-358 946.4,-368.54"/>
<polygon fill="none" stroke="#4169e1" points="950.4,-364.73 950.4,-387.27 728.95,-398 421.08,-398 199.63,-387.27 199.63,-364.73 421.08,-354 728.95,-354 950.4,-364.73"/>
<polygon fill="none" stroke="#4169e1" points="954.4,-360.92 954.4,-391.08 729.04,-402 420.99,-402 195.63,-391.08 195.63,-360.92 420.99,-350 729.04,-350 954.4,-360.92"/>
<text text-anchor="middle" x="575.01" y="-372.3" font-family="Times,serif" font-size="14.00" fill="#ffffff">/nix/var/nix/profiles/per&#45;user/enikolov/home&#45;manager&#45;18&#45;link (219.5 KB)</text>
</g>
<!-- N32&#45;&gt;N5 -->
<g id="edge27" class="edge">
<title>N32&#45;&gt;N5</title>
<path fill="none" stroke="black" d="M954.76,-364.11C1041.4,-369.13 1117.61,-382.39 1150.03,-411 1258.7,-506.9 1282.79,-994.56 1287.17,-1117.72"/>
<polygon fill="black" stroke="black" points="1283.67,-1117.98 1287.51,-1127.85 1290.67,-1117.74 1283.67,-1117.98"/>
</g>
<!-- N33 -->
<g id="node30" class="node">
<title>N33</title>
<polygon fill="#416ae1" stroke="#416ae1" points="893.87,-298.54 893.87,-313.46 707.09,-324 442.94,-324 256.16,-313.46 256.16,-298.54 442.94,-288 707.09,-288 893.87,-298.54"/>
<polygon fill="none" stroke="#416ae1" points="897.88,-294.76 897.88,-317.24 707.2,-328 442.83,-328 252.15,-317.24 252.15,-294.76 442.83,-284 707.2,-284 897.88,-294.76"/>
<polygon fill="none" stroke="#416ae1" points="901.88,-290.98 901.88,-321.02 707.32,-332 442.71,-332 248.15,-321.02 248.15,-290.98 442.71,-280 707.32,-280 901.88,-290.98"/>
<text text-anchor="middle" x="575.01" y="-302.3" font-family="Times,serif" font-size="14.00" fill="#ffffff">/nix/var/nix/profiles/per&#45;user/enikolov/profile&#45;12&#45;link (4.3 MB)</text>
</g>
<!-- N33&#45;&gt;N5 -->
<g id="edge28" class="edge">
<title>N33&#45;&gt;N5</title>
<path fill="none" stroke="black" d="M901.92,-291.71C1009.39,-294.07 1111.38,-306.34 1150.03,-341 1268.64,-447.35 1285.35,-987.2 1287.66,-1117.61"/>
<polygon fill="black" stroke="black" points="1284.17,-1118.01 1287.83,-1127.95 1291.17,-1117.9 1284.17,-1118.01"/>
</g>
<!-- N34 -->
<g id="node31" class="node">
<title>N34</title>
<polygon fill="#4169e1" stroke="#4169e1" points="940.24,-228.54 940.24,-243.46 726.3,-254 423.73,-254 209.79,-243.46 209.79,-228.54 423.73,-218 726.3,-218 940.24,-228.54"/>
<polygon fill="none" stroke="#4169e1" points="944.24,-224.74 944.24,-247.26 726.39,-258 423.64,-258 205.79,-247.26 205.79,-224.74 423.64,-214 726.39,-214 944.24,-224.74"/>
<polygon fill="none" stroke="#4169e1" points="948.24,-220.93 948.24,-251.07 726.49,-262 423.54,-262 201.79,-251.07 201.79,-220.93 423.54,-210 726.49,-210 948.24,-220.93"/>
<text text-anchor="middle" x="575.01" y="-232.3" font-family="Times,serif" font-size="14.00" fill="#ffffff">/nix/var/nix/profiles/per&#45;user/enikolov/home&#45;manager&#45;7&#45;link (203.9 KB)</text>
</g>
<!-- N34&#45;&gt;N5 -->
<g id="edge29" class="edge">
<title>N34&#45;&gt;N5</title>
<path fill="none" stroke="black" d="M948.16,-223.1C1037.75,-227.79 1117.15,-241.12 1150.03,-271 1278.71,-387.94 1287.73,-980.99 1288.09,-1117.81"/>
<polygon fill="black" stroke="black" points="1284.59,-1117.91 1288.1,-1127.91 1291.59,-1117.9 1284.59,-1117.91"/>
</g>
<!-- N2 -->
<g id="node32" class="node">
<title>N2</title>
<polygon fill="#3ecde9" stroke="#3ecde9" points="1128.81,-2328.54 1128.81,-2343.46 804.4,-2354 345.63,-2354 21.22,-2343.46 21.22,-2328.54 345.63,-2318 804.4,-2318 1128.81,-2328.54"/>
<polygon fill="none" stroke="#3ecde9" points="1132.81,-2324.67 1132.81,-2347.33 804.47,-2358 345.56,-2358 17.22,-2347.33 17.22,-2324.67 345.56,-2314 804.47,-2314 1132.81,-2324.67"/>
<polygon fill="none" stroke="#3ecde9" points="1136.81,-2320.8 1136.81,-2351.2 804.53,-2362 345.5,-2362 13.22,-2351.2 13.22,-2320.8 345.5,-2310 804.53,-2310 1136.81,-2320.8"/>
<text text-anchor="middle" x="575.01" y="-2332.3" font-family="Times,serif" font-size="14.00" fill="#000000">/home/enikolov/dev/lschoe/mpyc/.direnv/flake&#45;inputs/84z6il2dyvh6qp87icpfg0iqn3rh3bvs&#45;source (698.4 MB)</text>
</g>
<!-- N1 -->
<g id="node33" class="node">
<title>N1</title>
<polygon fill="#3af2c6" stroke="#3af2c6" points="1116.89,-2398.54 1116.89,-2413.46 799.47,-2424 350.56,-2424 33.14,-2413.46 33.14,-2398.54 350.56,-2388 799.47,-2388 1116.89,-2398.54"/>
<polygon fill="none" stroke="#3af2c6" points="1120.89,-2394.67 1120.89,-2417.33 799.53,-2428 350.5,-2428 29.14,-2417.33 29.14,-2394.67 350.5,-2384 799.53,-2384 1120.89,-2394.67"/>
<polygon fill="none" stroke="#3af2c6" points="1124.89,-2390.81 1124.89,-2421.19 799.6,-2432 350.43,-2432 25.14,-2421.19 25.14,-2390.81 350.43,-2380 799.6,-2380 1124.89,-2390.81"/>
<text text-anchor="middle" x="575.01" y="-2402.3" font-family="Times,serif" font-size="14.00" fill="#000000">/home/enikolov/dev/lschoe/mpyc/.direnv/flake&#45;inputs/hbv5vnnfiy113bahk8rw6fd8s99jjq5a&#45;source (1.5 GB)</text>
</g>
<!-- N35 -->
<g id="node34" class="node">
<title>N35</title>
<polygon fill="#4169e1" stroke="#4169e1" points="1142.04,-2538.54 1142.04,-2553.46 809.89,-2564 340.14,-2564 7.99,-2553.46 7.99,-2538.54 340.14,-2528 809.89,-2528 1142.04,-2538.54"/>
<polygon fill="none" stroke="#4169e1" points="1146.04,-2534.67 1146.04,-2557.33 809.95,-2568 340.08,-2568 3.99,-2557.33 3.99,-2534.67 340.08,-2524 809.95,-2524 1146.04,-2534.67"/>
<polygon fill="none" stroke="#4169e1" points="1150.04,-2530.79 1150.04,-2561.21 810.01,-2572 340.02,-2572 -0.01,-2561.21 -0.01,-2530.79 340.02,-2520 810.01,-2520 1150.04,-2530.79"/>
<text text-anchor="middle" x="575.01" y="-2542.3" font-family="Times,serif" font-size="14.00" fill="#ffffff">/home/enikolov/dev/lschoe/mpyc/.direnv/flake&#45;profile&#45;a5d5b61aa8a61b7d9d765e1daf971a9a578f1cfa (69.3 KB)</text>
</g>
<!-- N4 -->
<g id="node39" class="node">
<title>N4</title>
<polygon fill="#3fbce8" stroke="#3fbce8" points="1368.53,-2529 1209.53,-2529 1209.53,-2493 1368.53,-2493 1368.53,-2529"/>
<text text-anchor="middle" x="1289.03" y="-2507.3" font-family="Times,serif" font-size="14.00" fill="#000000">file&#45;5.43 (554.0 MB)</text>
</g>
<!-- N35&#45;&gt;N4 -->
<g id="edge30" class="edge">
<title>N35&#45;&gt;N4</title>
<path fill="none" stroke="black" d="M989.42,-2525.68C1068.78,-2521.78 1144.23,-2518.07 1199.44,-2515.35"/>
<polygon fill="black" stroke="black" points="1199.69,-2518.85 1209.5,-2514.86 1199.34,-2511.86 1199.69,-2518.85"/>
</g>
<!-- N36 -->
<g id="node35" class="node">
<title>N36</title>
<polygon fill="#4169e1" stroke="#4169e1" points="946.4,-158.54 946.4,-173.46 728.85,-184 421.18,-184 203.63,-173.46 203.63,-158.54 421.18,-148 728.85,-148 946.4,-158.54"/>
<polygon fill="none" stroke="#4169e1" points="950.4,-154.73 950.4,-177.27 728.95,-188 421.08,-188 199.63,-177.27 199.63,-154.73 421.08,-144 728.95,-144 950.4,-154.73"/>
<polygon fill="none" stroke="#4169e1" points="954.4,-150.92 954.4,-181.08 729.04,-192 420.99,-192 195.63,-181.08 195.63,-150.92 420.99,-140 729.04,-140 954.4,-150.92"/>
<text text-anchor="middle" x="575.01" y="-162.3" font-family="Times,serif" font-size="14.00" fill="#ffffff">/nix/var/nix/profiles/per&#45;user/enikolov/home&#45;manager&#45;17&#45;link (219.4 KB)</text>
</g>
<!-- N36&#45;&gt;N5 -->
<g id="edge31" class="edge">
<title>N36&#45;&gt;N5</title>
<path fill="none" stroke="black" d="M954.78,-153.21C1041.74,-158.19 1118.1,-171.65 1150.03,-201 1288.63,-328.4 1289.93,-973.36 1288.45,-1117.43"/>
<polygon fill="black" stroke="black" points="1284.95,-1117.61 1288.33,-1127.65 1291.95,-1117.69 1284.95,-1117.61"/>
</g>
<!-- N37 -->
<g id="node36" class="node">
<title>N37</title>
<polygon fill="#4169e1" stroke="#4169e1" points="940.24,-88.54 940.24,-103.46 726.3,-114 423.73,-114 209.79,-103.46 209.79,-88.54 423.73,-78 726.3,-78 940.24,-88.54"/>
<polygon fill="none" stroke="#4169e1" points="944.24,-84.74 944.24,-107.26 726.39,-118 423.64,-118 205.79,-107.26 205.79,-84.74 423.64,-74 726.39,-74 944.24,-84.74"/>
<polygon fill="none" stroke="#4169e1" points="948.24,-80.93 948.24,-111.07 726.49,-122 423.54,-122 201.79,-111.07 201.79,-80.93 423.54,-70 726.49,-70 948.24,-80.93"/>
<text text-anchor="middle" x="575.01" y="-92.3" font-family="Times,serif" font-size="14.00" fill="#ffffff">/nix/var/nix/profiles/per&#45;user/enikolov/home&#45;manager&#45;2&#45;link (204.0 KB)</text>
</g>
<!-- N37&#45;&gt;N5 -->
<g id="edge32" class="edge">
<title>N37&#45;&gt;N5</title>
<path fill="none" stroke="black" d="M948.19,-82.64C1037.95,-87.29 1117.42,-100.73 1150.03,-131 1224.72,-200.35 1276.31,-959.44 1286.27,-1117.34"/>
<polygon fill="black" stroke="black" points="1282.8,-1117.89 1286.92,-1127.65 1289.78,-1117.45 1282.8,-1117.89"/>
</g>
<!-- N38 -->
<g id="node37" class="node">
<title>N38</title>
<polygon fill="#4169e1" stroke="#4169e1" points="689.84,-2468.54 689.84,-2483.46 622.58,-2494 527.45,-2494 460.19,-2483.46 460.19,-2468.54 527.45,-2458 622.58,-2458 689.84,-2468.54"/>
<polygon fill="none" stroke="#4169e1" points="693.85,-2465.12 693.85,-2486.88 622.89,-2498 527.14,-2498 456.18,-2486.88 456.18,-2465.12 527.14,-2454 622.89,-2454 693.85,-2465.12"/>
<polygon fill="none" stroke="#4169e1" points="697.85,-2461.7 697.85,-2490.3 623.2,-2502 526.83,-2502 452.18,-2490.3 452.18,-2461.7 526.83,-2450 623.2,-2450 697.85,-2461.7"/>
<text text-anchor="middle" x="575.01" y="-2472.3" font-family="Times,serif" font-size="14.00" fill="#ffffff">{transient} (2.8 KB)</text>
</g>
<!-- N38&#45;&gt;N4 -->
<g id="edge33" class="edge">
<title>N38&#45;&gt;N4</title>
<path fill="none" stroke="black" d="M698.01,-2482C840.59,-2489.01 1073.07,-2500.43 1199.45,-2506.65"/>
<polygon fill="black" stroke="black" points="1199.32,-2510.14 1209.48,-2507.14 1199.66,-2503.15 1199.32,-2510.14"/>
</g>
</g>
</svg>
